<svg xmlns:xlink="http://www.w3.org/1999/xlink" xmlns="http://www.w3.org/2000/svg" fill="none" viewBox="0 0 20 20" width="20" height="20"><path d="M16.448 0H3.552C1.59 0 0 1.492 0 3.333v13.334C0 18.507 1.59 20 3.552 20h12.896C18.41 20 20 18.508 20 16.667V3.333C20 1.493 18.41 0 16.448 0Z" fill="#F6F8FA"></path><path fill-rule="evenodd" clip-rule="evenodd" d="M10.523 9.577h3.681c.34 0 .614.293.614.654 0 .361-.275.654-.614.654h-3.681v3.923c0 .361-.275.654-.614.654-.339 0-.614-.293-.614-.654v-3.923H5.614c-.34 0-.614-.293-.614-.654 0-.361.275-.654.614-.654h3.681V5.654c0-.361.275-.654.614-.654.339 0 .614.293.614.654v3.923Z" fill="#A3ACBA"></path></svg>