<svg xmlns:xlink="http://www.w3.org/1999/xlink" xmlns="http://www.w3.org/2000/svg" class="CheckoutPhoneGraphic__applePay" viewBox="0 0 32 14" width="32"  height="14" >
            <path fill="#FFFFFF" d="M25.94 4.22l1.62 5.23h.03l1.62-5.23h1.4l-2.41 6.77c-.56 1.55-1.19 2.06-2.52 2.06-.1 0-.44 0-.53-.03v-1.06l.4.02c.6 0 .95-.26 1.16-.92l.12-.4-2.32-6.44h1.43zM7.4 3.43c.31.03 1.2.12 1.76.96C9.1 4.43 8.1 5 8.1 6.22c.01 1.45 1.27 1.94 1.29 1.95-.02.04-.2.69-.66 1.36-.4.59-.82 1.17-1.47 1.18-.64.01-.85-.38-1.58-.38-.73 0-.97.37-1.57.4-.63.01-1.11-.64-1.51-1.23-.83-1.19-1.45-3.36-.6-4.83a2.32 2.32 0 0 1 1.97-1.2c.63-.01 1.2.41 1.58.41.38 0 1.05-.5 1.83-.45zm14 .71c1.57 0 2.6.82 2.6 2.1v4.4h-1.27V9.6h-.03a2.26 2.26 0 0 1-2.02 1.12c-1.28 0-2.17-.76-2.17-1.9 0-1.13.87-1.78 2.46-1.88l1.7-.1v-.5c0-.72-.46-1.11-1.3-1.11-.7 0-1.2.36-1.3.9h-1.24c.04-1.15 1.12-1.98 2.57-1.98zm-6.13-2.35c1.71 0 2.9 1.18 2.9 2.9a2.8 2.8 0 0 1-2.95 2.93h-1.9v3.03h-1.36V1.79h3.3zm7.4 5.95l-1.52.1c-.85.06-1.3.38-1.3.93s.46.9 1.2.9c.92 0 1.63-.6 1.63-1.43v-.5zm-7.76-4.8h-1.58v3.53h1.57c1.2 0 1.87-.65 1.87-1.77 0-1.11-.68-1.75-1.86-1.75zM7.4 1.12c.06.57-.16 1.13-.5 1.54-.34.4-.88.73-1.42.68-.07-.55.2-1.13.5-1.48.35-.42.94-.71 1.42-.74z"></path>
          </svg>