<svg class="HomepageDashboardGraphic__sectionGraphSvg" xmlns="http://www.w3.org/2000/svg" fill="none" width="220" height="112" viewBox="0 0 220 112"><g clip-path="url(#homepage-new-customer-graph-layer-a)"><mask id="homepage-new-customer-graph-layer-b" style="mask-type:luminance" maskUnits="userSpaceOnUse" x="0" y="0" width="220" height="112"><path d="M220 0H0v112h220V0Z" fill="#fff"></path></mask><g mask="url(#homepage-new-customer-graph-layer-b)"><mask id="homepage-new-customer-graph-layer-c" style="mask-type:luminance" maskUnits="userSpaceOnUse" x="0" y="0" width="220" height="112"><path d="M220 0H0v112h220V0Z" fill="#fff"></path></mask><g mask="url(#homepage-new-customer-graph-layer-c)"><mask id="homepage-new-customer-graph-layer-d" style="mask-type:luminance" maskUnits="userSpaceOnUse" x="0" y="0" width="220" height="112"><path d="M0 0h220v112H0V0Z" fill="#fff"></path></mask><g mask="url(#homepage-new-customer-graph-layer-d)"><g opacity=".3"><path d="M218.625 108.961H.81v.351h217.815v-.351Z" fill="#C4CCD8"></path><path d="M218.625 108.961H.81v.351h217.815v-.351Z" stroke="#C4CCD8" stroke-width=".423"></path></g><path opacity=".3" d="M218.844 49.185h-32.949l-32.948 14.9-32.95-5.8-32.948 33.7-32.948 16.8H21.15" stroke="#C4CCD8" stroke-width=".846" stroke-linejoin="round"></path><path d="m21.15 108.785 32.95-14.8 32.949-24.9 32.948 12.8 32.95-32.7 32.948-4 32.949-25.8" stroke="#fff" stroke-width="3.383" stroke-linejoin="round"></path><path d="m21.15 108.785 32.95-14.8 32.949-24.9 32.948 12.8 32.95-32.7 32.948-4 32.949-25.8" stroke="#635BFF" stroke-width="1.691" stroke-linejoin="round"></path><path opacity=".3" d="M21.62 109.662h-.313v2.456h.313v-2.456Z" stroke="#C4CCD8" stroke-width=".423" stroke-linejoin="round"></path><mask id="homepage-new-customer-graph-layer-e" style="mask-type:luminance" maskUnits="userSpaceOnUse" x="0" y="8" width="8" height="7"><path d="M0 8h8v7H0V8Z" fill="#fff"></path></mask><g mask="url(#homepage-new-customer-graph-layer-e)"><path d="M2.426 14.501v-4.63h-.06L1 10.863v-.707l1.43-1.028h.667V14.5h-.67l-.001.001Zm2.224 0v-.462l1.817-1.966c.686-.742.887-1.02.887-1.49v-.008c0-.566-.384-.99-1.017-.99-.644 0-1.073.42-1.073 1.054l-.003.007-.64-.004-.008-.003C4.616 9.685 5.353 9 6.382 9c.938 0 1.657.637 1.657 1.505v.007c0 .615-.264 1.062-1.236 2.063L5.58 13.838v.06h2.55v.603H4.65Z" fill="#727F96"></path></g><path d="M3.896 105.628c-1.188 0-1.896-1.084-1.896-2.812v-.008C2 101.08 2.708 100 3.896 100s1.903 1.08 1.903 2.808v.008c0 1.728-.715 2.812-1.903 2.812Zm0-.585c.77 0 1.229-.857 1.229-2.227v-.008c0-1.37-.458-2.219-1.23-2.219-.77 0-1.22.849-1.22 2.219v.008c0 1.37.451 2.227 1.221 2.227Z" fill="#727F96"></path></g></g></g></g><defs><clipPath id="homepage-new-customer-graph-layer-a"><path fill="#fff" d="M0 0h220v112H0z"></path></clipPath></defs></svg>
