<svg xmlns:xlink="http://www.w3.org/1999/xlink" xmlns="http://www.w3.org/2000/svg" width="17" viewBox="0 0 17 12" height="12" >
  <path fill="#FFFFFF" stroke="#000000" stroke-opacity="0.2" stroke-width="0.5px" d="M15.58 11.75c.68 0 1.24-.55 1.24-1.24V1.4c0-.32-.14-.64-.37-.87a1.22 1.22 0 0 0-.87-.36H1.42C1.09.18.78.3.55.53a1.3 1.3 0 0 0-.37.89v9.09c0 .32.14.64.37.88.23.23.54.36.87.36h14.16z"></path>
  <path fill="#F27712" d="M8.93 12.07h6.65c.78 0 1.41-.62 1.42-1.4V9a27.44 27.44 0 0 1-8.07 3.07z"></path>
  <path fill="#000" d="M16.41 6.79h-.6l-.68-.9h-.07v.9h-.49V4.56h.73c.57 0 .9.23.9.65 0 .35-.21.57-.57.64l.78.94zm-.72-1.56c0-.21-.17-.33-.47-.33h-.15v.68h.14c.31 0 .48-.12.48-.35zm-2.83-.67h1.38v.37h-.9v.5h.87v.38h-.87v.6h.9v.38h-1.4V4.56h.02zm-1.6 2.28l-1.06-2.3h.54l.67 1.51.68-1.5h.53l-1.07 2.3h-.28zm-4.46 0c-.75 0-1.34-.51-1.34-1.17 0-.65.6-1.17 1.35-1.17.21 0 .39.04.6.13v.52a.88.88 0 0 0-.61-.25c-.47 0-.83.34-.83.77 0 .44.36.77.85.77.23 0 .4-.07.6-.25v.52c-.23.1-.41.13-.62.13zM5.31 6.1c0 .43-.35.73-.88.73-.37 0-.63-.13-.87-.43l.33-.26c.1.2.3.3.53.3.22 0 .38-.15.38-.32 0-.1-.05-.18-.15-.23-.1-.05-.22-.1-.34-.13-.46-.15-.62-.3-.62-.62 0-.36.34-.63.79-.63.28 0 .53.08.74.24l-.25.3a.54.54 0 0 0-.4-.18c-.21 0-.37.11-.37.25 0 .12.1.18.38.28.57.18.73.34.73.7zM2.9 4.56h.5v2.23h-.5V4.56zM1.3 6.79H.59V4.56h.72c.8 0 1.35.46 1.35 1.1 0 .35-.16.66-.45.87-.25.18-.52.26-.9.26zm.57-1.67c-.16-.13-.35-.18-.67-.18h-.13v1.48h.14c.31 0 .5-.06.66-.18a.7.7 0 0 0 0-1.12z"></path>
  <path fill="#F27712" d="M8.79 4.5c-.64 0-1.17.52-1.17 1.15 0 .68.5 1.2 1.17 1.2.66 0 1.18-.52 1.18-1.18 0-.65-.51-1.17-1.18-1.17z"></path>
</svg>