<svg class="HomepageDashboardGraphic__mainGraphSvg" viewBox="0 0 468 70" width="468" height="70" fill="none" xmlns="http://www.w3.org/2000/svg">
                  <path opacity=".3" d="M0 68.125h467.488v.623H0v-.623Z" fill="#C4CCD8"></path>
                  <path opacity=".3" d="M.153.355h.306v67.892H.153V.355ZM19.606.355h.306v68.238h-.306V.355ZM39.06.355h.306v68.238h-.307V.355ZM58.512.355h.307v68.238h-.307V.355ZM77.966.355h.306v68.238h-.306V.355ZM97.418.355h.307v68.238h-.306V.355ZM116.871.355h.307v68.238h-.307V.355ZM136.325.355h.307v68.238h-.307V.355ZM155.778.355h.307v68.238h-.307V.355ZM175.231.355h.307v68.238h-.307V.355ZM194.684.355h.307v68.238h-.307V.355ZM214.137.355h.307v68.238h-.307V.355ZM233.591.355h.306v68.238h-.306V.355ZM253.044.355h.306v68.238h-.306V.355ZM272.497.355h.306v67.892h-.306V.355ZM291.95.355h.306v68.238h-.306V.355ZM311.404.355h.305v68.238h-.305V.355ZM330.857.355h.306v68.238h-.306V.355ZM350.31.355h.306v68.238h-.306V.355ZM369.762.355h.306v68.238h-.306V.355ZM389.215.355h.307v68.238h-.307V.355ZM408.669.355h.307v68.238h-.307V.355ZM428.122.355h.307v68.238h-.307V.355ZM447.575.355h.307v68.238h-.307V.355ZM467.028.355h.307v67.892h-.307V.355Z" stroke="#C4CCD8" stroke-width=".423" stroke-linejoin="round"></path>
                  <path opacity=".3" d="M467.488 29.742H350.617l-19.48 12.794h-38.956l-19.479 4.265h-58.436l-19.478 8.529h-58.437l-19.479 4.264H97.393L77.915 63.86l-19.479 4.265H0" stroke="#C4CCD8" stroke-width=".846" stroke-linejoin="round"></path>
                  <path d="M274.138 28.75c0-.834-.666-1.51-1.486-1.51-.819 0-1.485.676-1.485 1.51v.096c0 .834.666 1.51 1.485 1.51.82 0 1.486-.676 1.486-1.51v-.096Z" fill="#635BFF"></path>
                  <path d="M-1.934 68.15h78.16l19.54-8.899h78.16l19.54-21.75 19.54-4.35h19.54l19.54-4.152h21.559" stroke="#635BFF" stroke-width="1.271" stroke-linejoin="round"></path>
                </svg>