<svg xmlns:xlink="http://www.w3.org/1999/xlink" xmlns="http://www.w3.org/2000/svg" fill="none" viewBox="0 0 20 20" width="20" height="20"><g clip-path="url(#startup-hub-kyber-path-a)" fill="none"><path d="M0 0h20v20H0V0Z" fill="#FF2951"></path><path d="M7.762 15.42c.423.09.844.19 1.273.247.541.07 1.09.09 1.634.053a7.568 7.568 0 0 0 3.111-.924c.28-.154.552-.324.814-.51 3.046-2.144 3.223-6.125.398-8.527-2.658-2.26-6.97-2.354-9.72-.213-.76.592-1.413 1.347-1.822 2.243a4.92 4.92 0 0 0-.421 2.576c.098.88.473 1.79 1.008 2.53.29.398.623.763.994 1.086.02.017.193.149.188.168-.223.963-.552 1.907-.838 2.85.473-.27.947-.537 1.42-.81.509-.29 1.003-.6 1.53-.853.144.026.288.055.431.086v-.002Z" fill="#A22636"></path><path d="M7.762 15.42c.423.09.844.19 1.273.247.541.07 1.09.09 1.634.053a7.568 7.568 0 0 0 3.111-.924c.28-.154.552-.324.814-.51 3.046-2.144 3.223-6.125.398-8.527-2.658-2.26-6.97-2.354-9.72-.213-.76.592-1.413 1.347-1.822 2.243a4.92 4.92 0 0 0-.421 2.576c.098.88.473 1.79 1.008 2.53.29.398.623.763.994 1.086.02.017.193.149.188.168-.223.963-.552 1.907-.838 2.85.473-.27.947-.537 1.42-.81.509-.29 1.003-.6 1.53-.853.144.026.288.055.431.086v-.002Z" fill="#FFFFFF"></path><path d="M8.9 12.986c-.124-.31-.826-1.996-1.894-3.098a.02.02 0 0 1-.004-.026.02.02 0 0 1 .007-.006c.155-.103 1.151-.67 1.89 1.091.007.018.033.02.042.002.215-.447 1.912-3.914 2.905-3.942.168-.005.334-.01.502-.006.125.004.251.008.377.019.063.005.126.012.187.023.087.015.125.138.041.182l-.023.013-.052.03c-.095.057-.187.12-.275.188a5.862 5.862 0 0 0-.597.548 8.33 8.33 0 0 0-.509.59c-.208.26-.405.53-.59.808-.235.346-.457.7-.666 1.063a30.24 30.24 0 0 0-1.299 2.521c-.009.019-.036.019-.042 0Z" fill="#E3E4E4"></path><path d="M8.9 12.986c-.124-.31-.826-1.996-1.894-3.098a.02.02 0 0 1-.004-.026.02.02 0 0 1 .007-.006c.155-.103 1.151-.67 1.89 1.091.007.018.033.02.042.002.215-.447 1.912-3.914 2.905-3.942.168-.005.334-.01.502-.006.125.004.251.008.377.019.063.005.126.012.187.023.087.015.125.138.041.182l-.023.013-.052.03c-.095.057-.187.12-.275.188a5.862 5.862 0 0 0-.597.548 8.33 8.33 0 0 0-.509.59c-.208.26-.405.53-.59.808-.235.346-.457.7-.666 1.063a30.24 30.24 0 0 0-1.299 2.521c-.009.019-.036.019-.042 0Z" fill="#00A7F7"></path></g><defs><clipPath id="startup-hub-kyber-path-a"><rect width="20" height="20" rx="3" fill="#fff"></rect></clipPath></defs></svg>