<svg xmlns:xlink="http://www.w3.org/1999/xlink" xmlns="http://www.w3.org/2000/svg" fill="none" viewBox="0 0 20 20" width="20" height="20"><g clip-path="url(#startup-hub-docusign-path-a)" fill="none"><path d="M0 0h20v20H0V0Z" fill="#E2F800"></path><path fill-rule="evenodd" clip-rule="evenodd" d="m9.15 8.676-.001 1.432-.087.06-.595-.605c-.546-.555-1.092-1.11-1.63-1.67-.151-.157-.242-.173-.395-.004-.261.29-.538.566-.827.827-.174.156-.144.243.008.393a713.482 713.482 0 0 1 4.168 4.156c.143.145.225.19.393.02A564.476 564.476 0 0 1 14.38 9.1c.169-.167.14-.251-.014-.393-.277-.255-.547-.52-.8-.799-.155-.172-.248-.191-.423-.008-.369.387-.75.763-1.13 1.14l-.466.461-.686.683V8.458c-.004-1.364-.002-2.729.007-4.093.004-.297-.077-.385-.367-.361-.323.026-.65.026-.973 0-.3-.024-.39.062-.387.376.012 1.432.01 2.864.009 4.296Zm-.57 7.31h1.393v.002h1.34a789.28 789.28 0 0 1 4.352.005c.248.001.352-.052.334-.32a6.918 6.918 0 0 1 0-1.052c.026-.315-.084-.388-.388-.387-2.247.009-4.494.008-6.741.008H6.36c-.673.001-1.345.002-2.018-.006-.243-.003-.353.05-.333.321.025.35.028.704 0 1.052-.027.314.083.387.388.385 1.394-.009 2.787-.011 4.181-.008h.002Z" fill="#000"></path></g><defs><clipPath id="startup-hub-docusign-path-a"><rect width="20" height="20" rx="3" fill="#fff"></rect></clipPath></defs></svg>