<svg xmlns:xlink="http://www.w3.org/1999/xlink" xmlns="http://www.w3.org/2000/svg" fill="none" viewBox="0 0 20 20" width="20" height="20"><g clip-path="url(#startup-hub-owl-path-a)" fill="none"><mask id="startup-hub-owl-path-b" style="mask-type:luminance" maskUnits="userSpaceOnUse" x="0" y="0" width="20" height="20" fill="none"><path d="M20 0H0v20h20V0Z" fill="#FFFFFF"></path></mask><g mask="url(#startup-hub-owl-path-b)" fill="none"><path d="M16.667 0H3.333A3.333 3.333 0 0 0 0 3.333v13.334A3.333 3.333 0 0 0 3.333 20h13.334A3.333 3.333 0 0 0 20 16.667V3.333A3.333 3.333 0 0 0 16.667 0Z" fill="#CCE3FA"></path><mask id="startup-hub-owl-path-c" style="mask-type:luminance" maskUnits="userSpaceOnUse" x="5" y="3" width="10" height="15" fill="none"><path d="M14.227 3.333H5.556V17.43h8.671V3.333Z" fill="#FFFFFF"></path></mask><g mask="url(#startup-hub-owl-path-c)" fill="#232323"><path d="M14.227 12.343v4.829c0 .183-.071.254-.254.254-.66 0-1.32.008-1.98-.002-1.529-.021-2.891-.512-4.069-1.485a6.396 6.396 0 0 1-2.204-3.565 6.394 6.394 0 0 1-.164-1.461c0-1.074-.002-2.147.001-3.221.003-1.115.373-2.094 1.118-2.924a4.193 4.193 0 0 1 2.35-1.343c1.102-.22 2.148-.046 3.11.54.977.594 1.621 1.452 1.935 2.553.111.388.157.786.157 1.189v4.636Zm-4.256-.878c.176 0 .428-.022.675-.075.944-.2 1.718-.681 2.29-1.46.697-.949.903-2.008.64-3.157a2.577 2.577 0 0 0-.389-.93 1.505 1.505 0 0 0-1.15-.667 1.802 1.802 0 0 0-.945.185 1.81 1.81 0 0 0-.868.842c-.102.207-.15.426-.152.656-.002.13-.08.209-.195.2-.098-.006-.164-.083-.165-.2a1.523 1.523 0 0 0-.079-.485c-.181-.522-.537-.885-1.034-1.111a1.608 1.608 0 0 0-1.085-.114c-.44.111-.754.39-.977.773-.254.438-.378.917-.424 1.416-.044.487.01.965.147 1.434.469 1.585 1.964 2.694 3.711 2.693Zm2.587 5.42h1.009c.087 0 .118-.032.118-.12v-.295c0-.1-.028-.127-.129-.127h-1.475a5.5 5.5 0 0 1-.963-.083 5.333 5.333 0 0 1-2.37-1.05 5.377 5.377 0 0 1-1.693-2.208 5.332 5.332 0 0 1-.394-1.61c-.023-.26-.02-.52-.02-.782a.186.186 0 0 0-.03-.113l-.261-.368c-.042-.058-.099-.077-.158-.059-.057.018-.093.07-.093.14v.319c-.004.437.001.874.07 1.308.123.792.391 1.53.814 2.21a5.933 5.933 0 0 0 2.554 2.278 5.838 5.838 0 0 0 2.194.55c.293.016.586.004.827.01Zm.03-1.085h.976c.091 0 .121-.03.121-.123v-.289c0-.103-.027-.13-.132-.13h-1.481a4.32 4.32 0 0 1-2.033-.5 4.308 4.308 0 0 1-2.038-2.31 3.92 3.92 0 0 1-.23-.906c-.008-.055-.024-.104-.074-.137-.093-.06-.183-.123-.274-.186-.049-.033-.1-.043-.153-.013-.055.032-.074.082-.068.143.01.08.017.16.027.239.065.492.204.963.417 1.41a4.836 4.836 0 0 0 1.786 2.033 4.795 4.795 0 0 0 2.339.76c.288.017.577.005.817.01Zm.077-1.083h.888c.105 0 .132-.027.132-.13v-.283c0-.101-.027-.13-.127-.13h-1.462c-.137.001-.273-.006-.409-.021a3.187 3.187 0 0 1-1.675-.706 3.172 3.172 0 0 1-1.016-1.44.186.186 0 0 0-.14-.133c-.081-.02-.161-.046-.241-.07-.06-.02-.12-.026-.169.023-.05.049-.044.107-.026.168a3.759 3.759 0 0 0 1.588 2.118c.543.354 1.14.549 1.788.593.308.021.617.004.87.01Zm.078-1.084h.818c.096 0 .124-.03.124-.126v-.29c0-.098-.028-.126-.13-.126-.509 0-1.019.003-1.528-.001a2.1 2.1 0 0 1-1.084-.31 2.103 2.103 0 0 1-.705-.686c-.03-.05-.066-.094-.129-.096a4.247 4.247 0 0 0-.33 0c-.1.005-.153.102-.113.193a.823.823 0 0 0 .055.1c.546.874 1.334 1.324 2.365 1.341.22.004.438 0 .656 0Zm.031-1.084h.8c.077 0 .11-.034.111-.11v-.306c0-.097-.029-.126-.125-.126-.465 0-.93-.004-1.395.002-.273.003-.525-.049-.746-.216a.142.142 0 0 0-.132-.02c-.09.026-.18.05-.271.077-.142.04-.173.154-.067.255.305.292.672.434 1.091.443.245.005.49 0 .734 0Zm.189-1.084h.607c.082 0 .115-.032.115-.111v-.32c0-.078-.033-.11-.114-.11l-.747-.001a.193.193 0 0 0-.117.037c-.139.1-.278.198-.417.296-.05.034-.08.077-.06.137.02.057.067.073.125.073.202-.002.405-.001.608-.001Z" fill="#232323"></path><path d="M7.993 6.046a.814.814 0 0 1 .815.807.814.814 0 0 1-.81.819.814.814 0 0 1-.815-.814c0-.446.364-.81.81-.812ZM11.788 6.046c.446 0 .811.363.813.81a.815.815 0 0 1-.813.816.814.814 0 0 1-.813-.816.815.815 0 0 1 .813-.81Z" fill="#232323"></path></g><g clip-path="url(#startup-hub-owl-path-d)" fill="none"><mask id="startup-hub-owl-path-e" style="mask-type:luminance" maskUnits="userSpaceOnUse" x="0" y="0" width="20" height="20" fill="none"><path d="M0 0h20v20H0V0Z" fill="#FFFFFF"></path></mask><g mask="url(#startup-hub-owl-path-e)" fill="none"><path d="M16.667 0H3.333A3.333 3.333 0 0 0 0 3.333v13.334A3.333 3.333 0 0 0 3.333 20h13.334A3.333 3.333 0 0 0 20 16.667V3.333A3.333 3.333 0 0 0 16.667 0Z" fill="#CCE3FA"></path><mask id="startup-hub-owl-path-f" style="mask-type:luminance" maskUnits="userSpaceOnUse" x="5" y="3" width="10" height="15" fill="none"><path d="M14.228 3.333H5.556V17.43h8.672V3.333Z" fill="#FFFFFF"></path></mask><g mask="url(#startup-hub-owl-path-f)" fill="#232323"><path d="M14.228 12.343v4.828c0 .184-.072.256-.256.256-.66 0-1.32.006-1.98-.003-1.528-.022-2.89-.513-4.068-1.485a6.395 6.395 0 0 1-2.204-3.565c-.11-.479-.166-.969-.164-1.46 0-1.075-.003-2.148 0-3.223A4.259 4.259 0 0 1 6.675 4.77a4.193 4.193 0 0 1 2.348-1.345c1.104-.218 2.15-.044 3.111.54.978.595 1.622 1.453 1.935 2.554.111.389.158.785.158 1.189v4.636Zm-4.256-.877c.175 0 .427-.023.675-.076.944-.2 1.716-.681 2.289-1.459.697-.95.903-2.01.64-3.158-.066-.333-.199-.649-.388-.93a1.505 1.505 0 0 0-1.151-.667 1.8 1.8 0 0 0-.945.185c-.377.173-.683.47-.867.842-.1.205-.152.429-.153.656-.002.13-.08.209-.195.2-.098-.006-.164-.083-.165-.2 0-.165-.026-.328-.079-.484-.182-.523-.536-.886-1.033-1.112a1.609 1.609 0 0 0-1.085-.114c-.44.111-.755.389-.978.773-.254.438-.378.917-.423 1.416A3.79 3.79 0 0 0 6.26 8.77c.469 1.586 1.965 2.696 3.711 2.695h.001Zm2.586 5.418h1.009c.088 0 .117-.03.119-.12v-.294c0-.1-.03-.128-.13-.128H12.08a5.5 5.5 0 0 1-.963-.082 5.334 5.334 0 0 1-2.371-1.05 5.377 5.377 0 0 1-1.692-2.208 5.332 5.332 0 0 1-.394-1.61c-.022-.26-.02-.52-.02-.782a.186.186 0 0 0-.03-.113l-.26-.368c-.042-.058-.1-.078-.159-.059-.056.018-.093.07-.093.14v.319a7.92 7.92 0 0 0 .069 1.308c.119.784.396 1.537.815 2.21a5.933 5.933 0 0 0 2.554 2.279c.688.324 1.434.51 2.194.549.293.016.586.004.827.01Zm.03-1.084h.977c.09 0 .12-.03.12-.122v-.29c0-.102-.027-.13-.133-.13h-1.48a4.313 4.313 0 0 1-2.033-.5A4.307 4.307 0 0 1 8 12.449a3.92 3.92 0 0 1-.23-.906c-.008-.055-.023-.104-.074-.137a8.95 8.95 0 0 1-.274-.186c-.048-.033-.1-.043-.153-.012-.055.03-.074.08-.067.142.046.573.197 1.132.445 1.65a4.837 4.837 0 0 0 1.784 2.033c.7.452 1.507.714 2.34.76.288.016.577.004.816.008Zm.078-1.083h.886c.107 0 .134-.027.134-.13v-.282c0-.102-.028-.13-.127-.13h-1.463c-.137 0-.273-.007-.408-.023a3.187 3.187 0 0 1-1.677-.705 3.172 3.172 0 0 1-1.014-1.44.186.186 0 0 0-.14-.133c-.082-.02-.162-.046-.242-.07-.06-.02-.12-.026-.168.023-.05.049-.045.106-.027.168a3.76 3.76 0 0 0 1.589 2.118c.534.35 1.15.554 1.787.594.309.02.617.003.87.01Zm.077-1.084h.818c.096 0 .125-.03.125-.126v-.29c0-.1-.03-.126-.13-.126-.51 0-1.02.002-1.53 0a2.101 2.101 0 0 1-1.084-.31 2.105 2.105 0 0 1-.703-.688c-.031-.049-.067-.093-.13-.095a4.35 4.35 0 0 0-.331 0c-.098.004-.152.102-.111.193a.835.835 0 0 0 .054.1c.546.875 1.334 1.325 2.366 1.341.219.004.436 0 .655 0l.001.001Zm.031-1.084h.8c.078 0 .112-.033.112-.11v-.307c0-.095-.03-.125-.126-.125-.464 0-.93-.004-1.396.002-.272.003-.524-.049-.745-.216a.142.142 0 0 0-.131-.02l-.272.077c-.142.04-.173.155-.067.256.304.29.672.433 1.091.442.245.005.489 0 .735 0Zm.19-1.085h.606c.082 0 .114-.032.116-.11v-.32c0-.077-.034-.11-.115-.11h-.746a.193.193 0 0 0-.118.036l-.417.296c-.05.034-.079.077-.059.136.02.058.067.074.123.074h.608l.001-.002Z" fill="#232323"></path><path d="M7.993 6.046a.815.815 0 0 1 .579 1.384.814.814 0 0 1-1.15.003.815.815 0 0 1-.24-.575c0-.446.365-.812.811-.812Zm3.796 0a.813.813 0 0 1 0 1.625.814.814 0 0 1-.575-1.387.817.817 0 0 1 .575-.238Z" fill="#232323"></path></g></g></g></g></g><defs><clipPath id="startup-hub-owl-path-a"><path fill="#fff" d="M0 0h20v20H0z"></path></clipPath><clipPath id="startup-hub-owl-path-d"><path fill="#fff" d="M0 0h20v20H0z"></path></clipPath></defs></svg>