<svg xmlns:xlink="http://www.w3.org/1999/xlink" xmlns="http://www.w3.org/2000/svg" fill="none" viewBox="0 0 20 20" width="20" height="20"><g clip-path="url(#startup-hub-mailchip-path-a)" fill="none"><path d="M0 0h20v20H0V0Z" fill="#FEE954"></path><path fill-rule="evenodd" clip-rule="evenodd" d="M15.428 11.57c.058.182.092.3.092.332.216 0 .525.208.475.767 0 .55-.217 1.158-.275 1.283-.792 1.892-2.71 2.96-4.968 2.9-2.1-.066-3.9-1.158-4.692-2.992-.492 0-.975-.216-1.342-.55-.358-.366-.608-.825-.667-1.283-.025-.367 0-.7.125-1.008l-.425-.367c-2.008-1.71 4.3-8.752 6.276-6.985.033 0 .7.667.7.667l.367-.15c1.8-.733 3.234-.367 3.234.792 0 .608-.4 1.342-1.009 1.984.242.216.425.55.517.916.092.275.125.55.125.734.033.24.033.825.033.825l.242.058c.458.125.825.309.975.492.15.183.242.367.275.55.034.15.034.45-.183.758l.125.276Zm-9.239 1.772c.023-.003.044-.007.063-.007.766-.125.941-.916.825-1.75-.15-.883-.759-1.183-1.159-1.217-.125 0-.217 0-.308.034-.734.158-1.125.767-1.067 1.558.058.734.825 1.342 1.492 1.375.046.023.104.015.154.007Zm-1.796-2.724c.25-.366.642-.608 1.1-.7.575-1.558 1.55-2.992 2.834-3.942.623-.51 1.287-.97 1.983-1.375 0 0-.55-.642-.733-.7-1.008-.267-3.234 1.258-4.634 3.267-.583.8-1.409 2.259-1.008 2.992.033.092.308.333.458.458Zm8.326 2.376-.033.033s-.825.4-2.192 0c.066.31.342.434.492.492.183.058.366.09.366.09 1.617.277 3.142-.64 3.476-.882.033-.025.067 0 .033.033l-.033.06c-.4.55-1.525 1.157-2.992 1.157-.609 0-1.25-.25-1.492-.583-.359-.517-.025-1.31.583-1.217l.275.033c.759.092 1.825 0 2.742-.425.825-.4 1.159-.825 1.1-1.158a.567.567 0 0 0-.15-.275c-.15-.15-.391-.242-.791-.367a3.623 3.623 0 0 1-.309-.092c-.183-.058-.241-.116-.275-.425 0-.054-.006-.174-.013-.312-.01-.18-.02-.39-.02-.513l-.005-.055c-.031-.355-.069-.772-.362-.978a.348.348 0 0 0-.242-.092c-.065-.024-.096-.014-.12-.006a.74.74 0 0 0-.37.177l-.06.046c-.366.3-.7.333-1.033.333-.08 0-.177-.012-.28-.026a3.068 3.068 0 0 0-.387-.032h-.15c-.575-.025-1.217.458-1.308 1.192-.121.81.325 1.305.617 1.627.07.078.132.146.174.206l.011.014c.023.03.048.06.048.11 0 .056-.021.11-.059.15-.616.61-.8 1.585-.583 2.41a.56.56 0 0 0 .063.237l.029.07c.516 1.25 2.158 1.8 3.809 1.285.208-.06.425-.15.608-.242.358-.183.7-.425.942-.7.392-.458.667-.917.758-1.525.025-.31-.033-.434-.125-.492-.091-.067-.216-.033-.216-.033s-.067-.4-.217-.734a4.663 4.663 0 0 1-1.525.76 5.751 5.751 0 0 1-2.042.215 6.524 6.524 0 0 1-.215-.033c-.325-.053-.532-.088-.636.217 1.009.366 2.076.216 2.076.216s.033 0 .033.034ZM9.785 5.8c-.55.275-1.183.792-1.675 1.375-.021.022-.006.025.026.03l.016.004a5.054 5.054 0 0 1 1.8-.792 4.823 4.823 0 0 1 2.225 0c.034 0 .067-.06.034-.06-.334-.207-.85-.332-1.217-.332-.033 0-.033-.033-.033-.033.031-.032.06-.064.086-.095a.742.742 0 0 1 .155-.147s0-.033-.033-.033c-.525.025-1.134.275-1.467.516 0 0-.033 0-.033-.033.016-.08.06-.171.098-.25.02-.044.04-.084.052-.117 0-.033 0-.033-.034-.033Zm3.118 3.934h.275c.058-.125.058-.308 0-.517-.059-.308-.15-.516-.334-.49-.183.032-.183.274-.125.582a.744.744 0 0 0 .184.425Zm-1.617.275c.125.058.217.092.242.058.024-.024.012-.045-.009-.08l-.025-.045c-.058-.125-.216-.216-.333-.275a.896.896 0 0 0-.917.125c-.091.06-.183.15-.15.217 0 .033.034.033.059.033.019 0 .063-.014.124-.033.122-.04.312-.1.517-.117.184-.008.367.06.492.117Zm-.61.3c.06-.058.151-.116.334-.15.242-.025.425.067.434.16v.057c-.015.02-.033.016-.064.01-.021-.004-.049-.01-.086-.01-.15-.033-.309-.033-.55.058 0 0-.092.034-.125.034h-.034v-.034c0-.033.034-.066.092-.125h-.001Zm1.676.4c.125.058.242.033.308-.058.034-.092-.033-.217-.15-.275-.125-.06-.242-.034-.308.058-.067.092.025.217.15.275Zm.576-.425c0-.15.091-.24.183-.24s.158.115.183.24c0 .15-.091.242-.183.242-.125 0-.183-.117-.183-.242ZM6.652 12.42c-.033-.034-.058-.034-.091 0h-.092c-.058 0-.125-.034-.15-.092a.43.43 0 0 1 0-.275l.033-.058c.092-.184.217-.46.059-.734-.125-.217-.275-.333-.492-.367a.59.59 0 0 0-.55.217c-.217.242-.242.55-.217.667 0 .033.033.058.058.058.034 0 .092-.033.125-.125v-.033c0-.06.034-.125.092-.217.058-.092.15-.15.242-.15.091-.033.216 0 .308.058.15.092.217.275.15.46-.091.09-.125.241-.125.4.034.274.217.4.367.424.15 0 .275-.092.275-.15.022-.034.018-.045.013-.06-.002-.005-.005-.012-.005-.023Z" fill="#0A0903"></path></g><defs><clipPath id="startup-hub-mailchip-path-a"><rect width="20" height="20" rx="3" fill="#fff"></rect></clipPath></defs></svg>