<svg xmlns:xlink="http://www.w3.org/1999/xlink" xmlns="http://www.w3.org/2000/svg" fill="none" viewBox="0 0 20 21" width="20" height="21"><mask id="homepage-xero-path-a" style="mask-type:alpha" maskUnits="userSpaceOnUse" x="0" y="0" width="20" height="21" fill="none"><path d="M16.66.77H3.585a3.27 3.27 0 0 0-3.27 3.27v13.077a3.27 3.27 0 0 0 3.27 3.27H16.66a3.27 3.27 0 0 0 3.27-3.27V4.04A3.27 3.27 0 0 0 16.66.77Z" fill="#C4C4C4"></path></mask><g mask="url(#homepage-xero-path-a)" fill="none"><path d="M19.93.77H.314v19.616H19.93V.771Z" fill="#13B5EA"></path><path fill-rule="evenodd" clip-rule="evenodd" d="M10.055 3.235a7.2 7.2 0 0 1 7.2 7.198 7.2 7.2 0 0 1-7.2 7.198 7.2 7.2 0 0 1-7.2-7.198 7.2 7.2 0 0 1 7.2-7.198Zm2.391 7.177a1.616 1.616 0 0 0 3.23 0c0-.89-.725-1.614-1.615-1.614s-1.615.724-1.615 1.614Zm.456 0a1.16 1.16 0 0 1 2.317 0 1.16 1.16 0 0 1-2.317 0ZM7.584 9.181l-1.229 1.231 1.229 1.23a.22.22 0 1 1-.316.306L6.04 10.726 4.81 11.954a.22.22 0 1 1-.309-.313l1.228-1.23L4.5 9.181a.22.22 0 1 1 .31-.313l1.233 1.23L7.271 8.87a.22.22 0 0 1 .313.31Zm6.477 1.63a.4.4 0 1 1 0-.8.4.4 0 0 1 0 .8Zm-1.797-1.984h.068a.22.22 0 0 1 .22.22c0 .122-.092.211-.223.216-.002 0-.05 0-.092.004-.478.06-.529.285-.529.842v1.671a.22.22 0 0 1-.44 0V9.064c0-.122.096-.219.217-.219a.22.22 0 0 1 .216.173.916.916 0 0 1 .563-.19Zm-1.443 1.278a1.61 1.61 0 0 0-.716-1.055 1.628 1.628 0 0 0-1.799.048 1.632 1.632 0 0 0-.632 1.714c.163.64.714 1.126 1.37 1.206.195.023.385.012.581-.039.17-.04.332-.11.483-.205.156-.1.287-.233.413-.392l.003-.003.005-.005c.087-.109.071-.264-.025-.337-.082-.063-.218-.088-.325.05a1.487 1.487 0 0 1-.078.1 1.266 1.266 0 0 1-.318.257 1.16 1.16 0 0 1-.541.136c-.64-.007-.983-.454-1.105-.773a1.15 1.15 0 0 1-.05-.185.505.505 0 0 1-.002-.034h2.298c.315-.006.485-.229.438-.483Zm-2.717.041v-.018a1.167 1.167 0 0 1 2.266.018H8.104Z" fill="#FFFFFF"></path></g></svg>