<svg class="HomepageDashboardGraphic__sectionGraphSvg" xmlns="http://www.w3.org/2000/svg" fill="none" viewBox="0 0 220 112"><g clip-path="url(#homepage-net-volume-graph-layer-a)"><g opacity=".3"><path d="M218.625 108.961H.81v.351h217.815v-.351Z" fill="#C4CCD8"></path><path d="M218.625 108.961H.81v.351h217.815v-.351Z" stroke="#C4CCD8" stroke-width=".423"></path></g><path d="m.698 7.865.61-.5c.34.65.866 1.017 1.553 1.092V6.313C1.937 6.122.986 5.863.986 4.746c0-.959.822-1.609 1.874-1.692V2.26h.618v.8c.874.101 1.536.527 1.85 1.143l-.585.485c-.264-.51-.679-.86-1.264-.96v1.985c.933.192 1.891.467 1.891 1.643 0 1-.823 1.66-1.89 1.777v.808h-.62v-.8c-.967-.084-1.78-.559-2.162-1.276v-.001Zm1.035-3.17c0 .551.5.751 1.128.885V3.712c-.653.066-1.128.434-1.128.983Zm2.891 2.711c0-.591-.508-.81-1.145-.959v2.01c.654-.084 1.145-.425 1.145-1.05ZM7.407 3.07h.61v6.022h-.814V4.687H5.737v-.591l.652-.042c.722-.05.959-.292 1.018-.985ZM8.97 8.432l1.797-1.468c.832-.675 1.476-1.25 1.476-2.034 0-.734-.484-1.235-1.23-1.235-.729 0-1.23.55-1.23 1.235 0 .216.05.44.136.65h-.763a1.926 1.926 0 0 1-.136-.692c0-1.069.89-1.877 2.01-1.877 1.23 0 2.01.767 2.01 1.868 0 1.018-.712 1.718-1.586 2.41L10.08 8.391h3.079v.7h-4.19v-.66Zm5.847-5.33v3.662l1.968-2.035h.95l-1.73 1.718 1.874 2.644h-.891L15.46 6.989l-.643.642v1.46h-.764V3.103h.763ZM.97 102.697c0-1.826.874-3.086 2.324-3.086 1.442 0 2.315 1.26 2.315 3.086 0 1.827-.873 3.085-2.314 3.085-1.45 0-2.324-1.258-2.324-3.085Zm.815 0c0 1.401.517 2.385 1.509 2.385.984 0 1.51-.984 1.51-2.385 0-1.401-.527-2.385-1.51-2.385-.992 0-1.51.984-1.51 2.385Z" fill="#727F96"></path><path opacity=".3" d="M218.844 49.185h-32.949l-32.948 14.9-32.95-29.8-32.948 44.7-32.948 29.8H21.15" stroke="#C4CCD8" stroke-width=".846" stroke-linejoin="round"></path><path d="m21.151 108.785 32.95-29.8 32.948-14.9 32.948 29.8 32.95-44.7h32.948l32.949-29.8" stroke="#fff" stroke-width="3.383" stroke-linejoin="round"></path><path d="m21.151 108.785 32.95-29.8 32.948-14.9 32.948 29.8 32.95-44.7h32.948l32.949-29.8" stroke="#635BFF" stroke-width="1.691" stroke-linejoin="round"></path><path opacity=".3" d="M21.62 109.662h-.313v2.456h.313v-2.456Z" stroke="#C4CCD8" stroke-width=".423" stroke-linejoin="round"></path></g><defs><clipPath id="homepage-net-volume-graph-layer-a"><path fill="#fff" d="M0 0h220v112H0z"></path></clipPath></defs></svg>